<mxfile host="app.diagrams.net" modified="2021-03-09T07:21:26.414Z" agent="5.0 (Macintosh; Intel Mac OS X 10_15_6) AppleWebKit/537.36 (KHTML, like Gecko) Chrome/88.0.4324.192 Safari/537.36" etag="jykXGu76cHFyj-cEvfCB" version="14.4.4" type="github">
  <diagram id="VYMUzPChVgCTFLQNsk6v" name="Page-1">
    <mxGraphModel dx="1693" dy="943" grid="1" gridSize="10" guides="1" tooltips="1" connect="1" arrows="1" fold="1" page="1" pageScale="1" pageWidth="827" pageHeight="1169" math="0" shadow="0">
      <root>
        <mxCell id="0" />
        <mxCell id="1" parent="0" />
        <mxCell id="CzlUhov0SnCZU1POkyCt-3" style="edgeStyle=orthogonalEdgeStyle;rounded=0;orthogonalLoop=1;jettySize=auto;html=1;" edge="1" parent="1" source="CzlUhov0SnCZU1POkyCt-1" target="CzlUhov0SnCZU1POkyCt-2">
          <mxGeometry relative="1" as="geometry" />
        </mxCell>
        <mxCell id="CzlUhov0SnCZU1POkyCt-1" value="Start" style="ellipse;shape=doubleEllipse;whiteSpace=wrap;html=1;aspect=fixed;" vertex="1" parent="1">
          <mxGeometry x="270" y="60" width="80" height="80" as="geometry" />
        </mxCell>
        <mxCell id="CzlUhov0SnCZU1POkyCt-9" style="edgeStyle=orthogonalEdgeStyle;rounded=0;orthogonalLoop=1;jettySize=auto;html=1;" edge="1" parent="1" source="CzlUhov0SnCZU1POkyCt-2" target="CzlUhov0SnCZU1POkyCt-4">
          <mxGeometry relative="1" as="geometry" />
        </mxCell>
        <mxCell id="CzlUhov0SnCZU1POkyCt-2" value="RootView&lt;br&gt;-&amp;gt; Queue" style="rounded=1;whiteSpace=wrap;html=1;" vertex="1" parent="1">
          <mxGeometry x="230" y="200" width="160" height="40" as="geometry" />
        </mxCell>
        <mxCell id="CzlUhov0SnCZU1POkyCt-7" style="edgeStyle=orthogonalEdgeStyle;rounded=0;orthogonalLoop=1;jettySize=auto;html=1;" edge="1" parent="1" source="CzlUhov0SnCZU1POkyCt-4" target="CzlUhov0SnCZU1POkyCt-6">
          <mxGeometry relative="1" as="geometry" />
        </mxCell>
        <mxCell id="CzlUhov0SnCZU1POkyCt-8" value="&lt;span style=&quot;font-size: 12px ; font-family: &amp;#34;helvetica&amp;#34; ; background-color: rgb(248 , 249 , 250)&quot;&gt;判断View是否&lt;/span&gt;&lt;br style=&quot;font-size: 12px ; font-family: &amp;#34;helvetica&amp;#34; ; background-color: rgb(248 , 249 , 250)&quot;&gt;&lt;span style=&quot;font-size: 12px ; font-family: &amp;#34;helvetica&amp;#34; ; background-color: rgb(248 , 249 , 250)&quot;&gt;page/element？&lt;/span&gt;" style="edgeLabel;html=1;align=center;verticalAlign=middle;resizable=0;points=[];" vertex="1" connectable="0" parent="CzlUhov0SnCZU1POkyCt-7">
          <mxGeometry x="-0.1636" y="-1" relative="1" as="geometry">
            <mxPoint x="1" y="8" as="offset" />
          </mxGeometry>
        </mxCell>
        <mxCell id="CzlUhov0SnCZU1POkyCt-4" value="pop队头元素&lt;br&gt;Queue.first" style="rounded=1;whiteSpace=wrap;html=1;" vertex="1" parent="1">
          <mxGeometry x="230" y="300" width="160" height="40" as="geometry" />
        </mxCell>
        <mxCell id="CzlUhov0SnCZU1POkyCt-11" style="rounded=0;orthogonalLoop=1;jettySize=auto;html=1;edgeStyle=elbowEdgeStyle;elbow=vertical;" edge="1" parent="1" source="CzlUhov0SnCZU1POkyCt-6" target="CzlUhov0SnCZU1POkyCt-10">
          <mxGeometry relative="1" as="geometry" />
        </mxCell>
        <mxCell id="CzlUhov0SnCZU1POkyCt-12" value="YES" style="edgeLabel;html=1;align=center;verticalAlign=middle;resizable=0;points=[];" vertex="1" connectable="0" parent="CzlUhov0SnCZU1POkyCt-11">
          <mxGeometry x="-0.1143" relative="1" as="geometry">
            <mxPoint as="offset" />
          </mxGeometry>
        </mxCell>
        <mxCell id="CzlUhov0SnCZU1POkyCt-14" style="rounded=0;orthogonalLoop=1;jettySize=auto;html=1;edgeStyle=elbowEdgeStyle;elbow=vertical;" edge="1" parent="1" source="CzlUhov0SnCZU1POkyCt-6" target="CzlUhov0SnCZU1POkyCt-13">
          <mxGeometry relative="1" as="geometry" />
        </mxCell>
        <mxCell id="CzlUhov0SnCZU1POkyCt-15" value="NO" style="edgeLabel;html=1;align=center;verticalAlign=middle;resizable=0;points=[];" vertex="1" connectable="0" parent="CzlUhov0SnCZU1POkyCt-14">
          <mxGeometry x="-0.1429" y="1" relative="1" as="geometry">
            <mxPoint as="offset" />
          </mxGeometry>
        </mxCell>
        <mxCell id="CzlUhov0SnCZU1POkyCt-6" value="YES/NO" style="rhombus;whiteSpace=wrap;html=1;" vertex="1" parent="1">
          <mxGeometry x="280" y="420" width="60" height="60" as="geometry" />
        </mxCell>
        <mxCell id="CzlUhov0SnCZU1POkyCt-23" style="edgeStyle=elbowEdgeStyle;rounded=0;orthogonalLoop=1;jettySize=auto;elbow=vertical;html=1;" edge="1" parent="1" source="CzlUhov0SnCZU1POkyCt-10" target="CzlUhov0SnCZU1POkyCt-20">
          <mxGeometry relative="1" as="geometry" />
        </mxCell>
        <mxCell id="CzlUhov0SnCZU1POkyCt-10" value="给View打标记&lt;br&gt;page/element" style="rounded=1;whiteSpace=wrap;html=1;" vertex="1" parent="1">
          <mxGeometry x="230" y="530" width="160" height="40" as="geometry" />
        </mxCell>
        <mxCell id="CzlUhov0SnCZU1POkyCt-17" style="edgeStyle=elbowEdgeStyle;rounded=0;orthogonalLoop=1;jettySize=auto;elbow=vertical;html=1;" edge="1" parent="1" source="CzlUhov0SnCZU1POkyCt-13" target="CzlUhov0SnCZU1POkyCt-16">
          <mxGeometry relative="1" as="geometry" />
        </mxCell>
        <mxCell id="CzlUhov0SnCZU1POkyCt-13" value="给View打标记&lt;br&gt;page/element" style="rounded=1;whiteSpace=wrap;html=1;" vertex="1" parent="1">
          <mxGeometry x="420" y="430" width="160" height="40" as="geometry" />
        </mxCell>
        <mxCell id="CzlUhov0SnCZU1POkyCt-27" style="edgeStyle=elbowEdgeStyle;rounded=0;orthogonalLoop=1;jettySize=auto;elbow=vertical;html=1;" edge="1" parent="1" source="CzlUhov0SnCZU1POkyCt-16" target="CzlUhov0SnCZU1POkyCt-4">
          <mxGeometry relative="1" as="geometry" />
        </mxCell>
        <mxCell id="CzlUhov0SnCZU1POkyCt-16" value="View.subviews&lt;br&gt;-&amp;gt; Queue队尾" style="rounded=1;whiteSpace=wrap;html=1;" vertex="1" parent="1">
          <mxGeometry x="620" y="300" width="160" height="40" as="geometry" />
        </mxCell>
        <mxCell id="CzlUhov0SnCZU1POkyCt-22" style="edgeStyle=elbowEdgeStyle;rounded=0;orthogonalLoop=1;jettySize=auto;elbow=horizontal;html=1;" edge="1" parent="1" source="CzlUhov0SnCZU1POkyCt-20" target="CzlUhov0SnCZU1POkyCt-21">
          <mxGeometry relative="1" as="geometry" />
        </mxCell>
        <mxCell id="CzlUhov0SnCZU1POkyCt-24" value="找到了？" style="edgeLabel;html=1;align=center;verticalAlign=middle;resizable=0;points=[];" vertex="1" connectable="0" parent="CzlUhov0SnCZU1POkyCt-22">
          <mxGeometry x="-0.2763" relative="1" as="geometry">
            <mxPoint x="-0.03" y="8.62" as="offset" />
          </mxGeometry>
        </mxCell>
        <mxCell id="CzlUhov0SnCZU1POkyCt-20" value="向上查找最近的一个&lt;br&gt;page/element" style="rounded=1;whiteSpace=wrap;html=1;" vertex="1" parent="1">
          <mxGeometry x="230" y="620" width="160" height="40" as="geometry" />
        </mxCell>
        <mxCell id="CzlUhov0SnCZU1POkyCt-26" style="edgeStyle=elbowEdgeStyle;rounded=0;orthogonalLoop=1;jettySize=auto;elbow=vertical;html=1;" edge="1" parent="1" source="CzlUhov0SnCZU1POkyCt-21" target="CzlUhov0SnCZU1POkyCt-25">
          <mxGeometry relative="1" as="geometry" />
        </mxCell>
        <mxCell id="CzlUhov0SnCZU1POkyCt-30" value="YES" style="edgeLabel;html=1;align=center;verticalAlign=middle;resizable=0;points=[];" vertex="1" connectable="0" parent="CzlUhov0SnCZU1POkyCt-26">
          <mxGeometry x="-0.3793" y="1" relative="1" as="geometry">
            <mxPoint x="-1" y="4.14" as="offset" />
          </mxGeometry>
        </mxCell>
        <mxCell id="CzlUhov0SnCZU1POkyCt-31" style="edgeStyle=elbowEdgeStyle;rounded=0;orthogonalLoop=1;jettySize=auto;elbow=vertical;html=1;" edge="1" parent="1" source="CzlUhov0SnCZU1POkyCt-21" target="CzlUhov0SnCZU1POkyCt-28">
          <mxGeometry relative="1" as="geometry" />
        </mxCell>
        <mxCell id="CzlUhov0SnCZU1POkyCt-32" value="NO" style="edgeLabel;html=1;align=center;verticalAlign=middle;resizable=0;points=[];" vertex="1" connectable="0" parent="CzlUhov0SnCZU1POkyCt-31">
          <mxGeometry x="-0.1487" y="-2" relative="1" as="geometry">
            <mxPoint y="-2" as="offset" />
          </mxGeometry>
        </mxCell>
        <mxCell id="CzlUhov0SnCZU1POkyCt-21" value="YES/NO" style="rhombus;whiteSpace=wrap;html=1;" vertex="1" parent="1">
          <mxGeometry x="280" y="720" width="60" height="60" as="geometry" />
        </mxCell>
        <mxCell id="CzlUhov0SnCZU1POkyCt-34" style="edgeStyle=elbowEdgeStyle;rounded=0;orthogonalLoop=1;jettySize=auto;elbow=vertical;html=1;entryX=0.5;entryY=1;entryDx=0;entryDy=0;" edge="1" parent="1" source="CzlUhov0SnCZU1POkyCt-25" target="CzlUhov0SnCZU1POkyCt-16">
          <mxGeometry relative="1" as="geometry">
            <Array as="points">
              <mxPoint x="600" y="870" />
              <mxPoint x="510" y="900" />
            </Array>
          </mxGeometry>
        </mxCell>
        <mxCell id="CzlUhov0SnCZU1POkyCt-25" value="将该page/element&lt;br&gt;挂在parent的子节点下" style="rounded=1;whiteSpace=wrap;html=1;" vertex="1" parent="1">
          <mxGeometry x="230" y="850" width="160" height="40" as="geometry" />
        </mxCell>
        <mxCell id="CzlUhov0SnCZU1POkyCt-33" style="edgeStyle=elbowEdgeStyle;rounded=0;orthogonalLoop=1;jettySize=auto;elbow=vertical;html=1;entryX=0.5;entryY=1;entryDx=0;entryDy=0;" edge="1" parent="1" source="CzlUhov0SnCZU1POkyCt-28" target="CzlUhov0SnCZU1POkyCt-16">
          <mxGeometry relative="1" as="geometry">
            <Array as="points">
              <mxPoint x="640" y="750" />
              <mxPoint x="660" y="800" />
            </Array>
          </mxGeometry>
        </mxCell>
        <mxCell id="CzlUhov0SnCZU1POkyCt-28" value="该元素就是顶层&lt;br&gt;page/element" style="rounded=1;whiteSpace=wrap;html=1;" vertex="1" parent="1">
          <mxGeometry x="430" y="730" width="160" height="40" as="geometry" />
        </mxCell>
      </root>
    </mxGraphModel>
  </diagram>
</mxfile>
